# xmcd
#
# Track frame offsets:
#	150
#	12075
#	30825
#	49950
#	67650
#	87075
#	103875
#	122925
#	138450
#	150825
#	162675
#	177825
#	191175
#	205650
#	221025
#	240600
#	261225
#	276825
#	288300
#	302025
#
# Disc length: 4309 seconds
#
# Revision: 3
# Processed by: cddbd v1.5.2PL0 Copyright (c) Steve Scherf et al.
# Submitted via: audiograbber 1.83.01
#
DISCID=1c10d314
DTITLE=Jerry Jeff Walker - Gypsy Songman
DYEAR=1987
DGENRE=Country
TTITLE0=Gypsy Songman
TTITLE1=David And Me
TTITLE2=Mr. Bojangles
TTITLE3=Hands On The Wheel
TTITLE4=Ramblin' Hearts
TTITLE5=Then Came The Children
TTITLE6=She Knows Her Daddy Sings
TTITLE7=Long Afternoons
TTITLE8=Borderline
TTITLE9=Driftin' Way Of Life
TTITLE10=Hard Livin'
TTITLE11=Railroad Lady
TTITLE12=Jaded Lover
TTITLE13=Rain Just Falls
TTITLE14=Night Rider's Lament
TTITLE15=We Were Kind Of Crazy Then
TTITLE16=Cadillac Cowboy
TTITLE17=Pass It On
TTITLE18=Charlie Dunn
TTITLE19=Hill Country Rain
EXTD=ID3G: 2
EXTT0=
EXTT1=
EXTT2=
EXTT3=
EXTT4=
EXTT5=
EXTT6=
EXTT7=
EXTT8=
EXTT9=
EXTT10=
EXTT11=
EXTT12=
EXTT13=
EXTT14=
EXTT15=
EXTT16=
EXTT17=
EXTT18=
EXTT19=
PLAYORDER=
